<?xml version="1.0" encoding="utf-8"?>
<!-- Generator: Adobe Illustrator 16.0.0, SVG Export Plug-In . SVG Version: 6.00 Build 0)  -->
<!DOCTYPE svg PUBLIC "-//W3C//DTD SVG 1.1//EN" "http://www.w3.org/Graphics/SVG/1.1/DTD/svg11.dtd">
<svg version="1.1" id="Capa_1" xmlns="http://www.w3.org/2000/svg" xmlns:xlink="http://www.w3.org/1999/xlink" x="0px" y="0px"
	 width="512px" height="512px" viewBox="0 0 512 512" enable-background="new 0 0 512 512" xml:space="preserve">
<path fill="#002A41" d="M404.021,54.387c-16.632-2.154-33.245-0.874-49.506,3.813C331.185,27.418,294.832,9.243,256,9.243
	c-38.833,0-75.185,18.185-98.516,48.958c-16.261-4.67-32.874-5.958-49.505-3.813C46.945,62.296,0.53,114.529,0.009,175.89
	c-0.485,57.406,38.021,107.176,93.643,121.018c13.206,3.283,22.952,14.592,24.241,28.143l7.397,77.709h-0.009l4.229,44.394
	c1.801,18.944,25.776,31.947,35.857,36.608c1.439,0.662,2.595,1.156,3.363,1.474c27.736,11.68,57.503,17.515,87.27,17.515
	c29.758,0,59.498-5.835,87.189-17.497c6.197-2.56,37.209-16.454,39.274-38.1l4.229-44.394h-0.009l7.397-77.709
	c1.289-13.551,11.034-24.859,24.241-28.143c55.648-13.851,94.163-63.612,93.678-121.018
	C511.471,114.529,465.055,62.296,404.021,54.387z M336.402,468.966c-51.104,21.521-109.719,21.53-160.857-0.018
	c-11.008-4.591-27.666-15.219-28.451-23.464L146,434.026c34.913,16.878,71.83,25.423,109.992,25.423
	c38.161,0,75.079-8.545,109.991-25.423l-1.094,11.458C364.12,453.729,347.453,464.366,336.402,468.966z M414.084,279.764
	c-20.453,5.094-35.549,22.625-37.553,43.608l-8.545,89.706C332.641,432.066,295,441.785,256,441.785
	c-39,0-76.641-9.719-111.987-28.707l-8.545-89.706c-2.004-20.992-17.099-38.515-37.553-43.608
	c-47.669-11.864-80.675-54.519-80.26-103.724c0.45-52.595,40.254-97.359,92.592-104.139c4.449-0.574,8.907-0.874,13.356-0.874
	c11.59,0,23.137,1.959,34.454,5.853l6.391,2.198l3.796-5.597C188.01,44.323,220.813,26.897,256,26.897s67.99,17.426,87.755,46.592
	l3.796,5.597l6.391-2.198c15.66-5.385,31.744-7.062,47.811-4.979c52.33,6.771,92.143,51.535,92.593,104.13
	C494.76,225.253,461.753,267.908,414.084,279.764z"/>
<path fill="#002A41" d="M166.629,309.451c-4.837,0.601-8.271,5.014-7.662,9.852l8.828,70.62c0.556,4.467,4.361,7.733,8.748,7.733
	c0.371,0,0.732-0.026,1.104-0.07c4.837-0.601,8.271-5.015,7.662-9.852l-8.828-70.621
	C175.872,312.267,171.414,308.895,166.629,309.451z"/>
<path fill="#002A41" d="M229.517,327.035c-4.873,0-8.828,3.946-8.828,8.828v70.62c0,4.882,3.955,8.828,8.828,8.828
	c4.873,0,8.828-3.946,8.828-8.828v-70.62C238.345,330.981,234.39,327.035,229.517,327.035z"/>
<path fill="#002A41" d="M345.371,309.451c-4.794-0.557-9.252,2.815-9.852,7.662l-8.828,70.621c-0.601,4.837,2.824,9.251,7.662,9.852
	c0.371,0.044,0.742,0.07,1.104,0.07c4.387,0,8.191-3.267,8.748-7.733l8.828-70.62C353.643,314.465,350.208,310.052,345.371,309.451z
	"/>
<path fill="#002A41" d="M282.482,327.035c-4.873,0-8.827,3.946-8.827,8.828v70.62c0,4.882,3.954,8.828,8.827,8.828
	s8.828-3.946,8.828-8.828v-70.62C291.311,330.981,287.355,327.035,282.482,327.035z"/>
<path fill="#002A41" d="M141.338,97.519c-73.692-0.627-88.038,59.295-88.161,59.904c-1.05,4.758,1.969,9.463,6.727,10.505
	c0.636,0.141,1.28,0.203,1.898,0.203c4.052,0,7.715-2.807,8.616-6.938c0.106-0.468,10.69-47.042,70.736-46.027
	c4.723-0.327,8.872-3.866,8.924-8.73C150.131,101.57,146.211,97.571,141.338,97.519z"/>
<path fill="#002A41" d="M206.468,64.044c-3.857,2.984-4.573,8.528-1.589,12.385c2.975,3.858,8.527,4.555,12.385,1.598
	c0.362-0.291,37.27-28.089,77.823,0.239c1.537,1.077,3.303,1.598,5.05,1.598c2.79,0,5.526-1.315,7.247-3.778
	c2.79-3.99,1.819-9.499-2.18-12.288C264.324,35.257,222.747,51.491,206.468,64.044z"/>
</svg>
