<?xml version="1.0" encoding="utf-8"?>
<!-- Generator: Adobe Illustrator 16.0.0, SVG Export Plug-In . SVG Version: 6.00 Build 0)  -->
<!DOCTYPE svg PUBLIC "-//W3C//DTD SVG 1.1//EN" "http://www.w3.org/Graphics/SVG/1.1/DTD/svg11.dtd">
<svg version="1.1" id="Capa_1" xmlns="http://www.w3.org/2000/svg" xmlns:xlink="http://www.w3.org/1999/xlink" x="0px" y="0px"
	 width="124px" height="124px" viewBox="0 0 124 124" enable-background="new 0 0 124 124" xml:space="preserve">
<path fill="#002A41" d="M12,26c-4.411,0-8-3.589-8-8s3.589-8,8-8h100c4.411,0,8,3.589,8,8s-3.589,8-8,8H12z"/>
<path fill="#002A41" d="M12,70c-4.411,0-8-3.589-8-8s3.589-8,8-8h100c4.411,0,8,3.589,8,8s-3.589,8-8,8H12z"/>
<path fill="#002A41" d="M12,114c-4.411,0-8-3.589-8-8s3.589-8,8-8h100c4.411,0,8,3.589,8,8s-3.589,8-8,8H12z"/>
<path fill="#002A41" d="M12,26c-4.411,0-8-3.589-8-8s3.589-8,8-8h100c4.411,0,8,3.589,8,8s-3.589,8-8,8H12z"/>
<path fill="#002A41" d="M12,70c-4.411,0-8-3.589-8-8s3.589-8,8-8h100c4.411,0,8,3.589,8,8s-3.589,8-8,8H12z"/>
<path fill="#002A41" d="M12,114c-4.411,0-8-3.589-8-8s3.589-8,8-8h100c4.411,0,8,3.589,8,8s-3.589,8-8,8H12z"/>
</svg>
